<?xml version="1.0" encoding="us-ascii" standalone="no"?><svg xmlns="http://www.w3.org/2000/svg" xmlns:xlink="http://www.w3.org/1999/xlink" contentStyleType="text/css" height="612px" preserveAspectRatio="none" style="width:427px;height:612px;background:#FFFFFF;" version="1.1" viewBox="0 0 427 612" width="427px" zoomAndPan="magnify"><defs/><g><ellipse cx="217" cy="20" fill="#222222" rx="10" ry="10" style="stroke:#222222;stroke-width:1.0;"/><rect fill="#F1F1F1" height="34.1328" rx="12.5" ry="12.5" style="stroke:#181818;stroke-width:0.5;" width="129" x="152.5" y="50"/><text fill="#000000" font-family="sans-serif" font-size="12" lengthAdjust="spacing" textLength="109" x="162.5" y="71.6016">launch&#12501;&#12449;&#12452;&#12523;&#36215;&#21205;</text><rect fill="#F1F1F1" height="34.1328" rx="12.5" ry="12.5" style="stroke:#181818;stroke-width:0.5;" width="169" x="132.5" y="104.1328"/><text fill="#000000" font-family="sans-serif" font-size="12" lengthAdjust="spacing" textLength="149" x="142.5" y="125.7344">map&#8594;odom TF&#12434;&#38745;&#30340;&#20844;&#38283;</text><rect fill="#F1F1F1" height="34.1328" rx="12.5" ry="12.5" style="stroke:#181818;stroke-width:0.5;" width="185" x="124.5" y="158.2656"/><text fill="#000000" font-family="sans-serif" font-size="12" lengthAdjust="spacing" textLength="165" x="134.5" y="179.8672">base_link&#8594;gps TF&#12434;&#38745;&#30340;&#20844;&#38283;</text><rect fill="#F1F1F1" height="34.1328" rx="12.5" ry="12.5" style="stroke:#181818;stroke-width:0.5;" width="194" x="120" y="212.3984"/><text fill="#000000" font-family="sans-serif" font-size="12" lengthAdjust="spacing" textLength="174" x="130" y="234">gnss_preprocessing&#12494;&#12540;&#12489;&#36215;&#21205;</text><rect fill="#F1F1F1" height="34.1328" rx="12.5" ry="12.5" style="stroke:#181818;stroke-width:0.5;" width="242" x="96" y="327.4863"/><text fill="#000000" font-family="sans-serif" font-size="12" lengthAdjust="spacing" textLength="222" x="106" y="349.0879">GNSS&#12487;&#12540;&#12479;&#21463;&#20449; (/ublox_gps_node/fix)</text><rect fill="#F1F1F1" height="34.1328" rx="12.5" ry="12.5" style="stroke:#181818;stroke-width:0.5;" width="278" x="78" y="381.6191"/><text fill="#000000" font-family="sans-serif" font-size="12" lengthAdjust="spacing" textLength="258" x="88" y="403.2207">&#32239;&#24230;&#32076;&#24230;&#39640;&#24230;(BLH)&#8594;&#22320;&#24515;&#30452;&#20132;&#24231;&#27161;(ECEF)&#12408;&#22793;&#25563;</text><rect fill="#F1F1F1" height="34.1328" rx="12.5" ry="12.5" style="stroke:#181818;stroke-width:0.5;" width="156" x="139" y="435.752"/><text fill="#000000" font-family="sans-serif" font-size="12" lengthAdjust="spacing" textLength="136" x="149" y="457.3535">ECEF&#8594;ENU&#24231;&#27161;&#31995;&#12408;&#22793;&#25563;</text><rect fill="#F1F1F1" height="34.1328" rx="12.5" ry="12.5" style="stroke:#181818;stroke-width:0.5;" width="344" x="45" y="489.8848"/><text fill="#000000" font-family="sans-serif" font-size="12" lengthAdjust="spacing" textLength="324" x="55" y="511.4863">Generates PoseStamped massage (publish: /gnss_pose)</text><rect fill="#F1F1F1" height="34.1328" rx="12.5" ry="12.5" style="stroke:#181818;stroke-width:0.5;" width="272" x="81" y="544.0176"/><text fill="#000000" font-family="sans-serif" font-size="12" lengthAdjust="spacing" textLength="252" x="91" y="565.6191">Update Path message (publish: /gnss_path)</text><polygon fill="#F1F1F1" points="184,266.5313,250,266.5313,262,278.5313,250,290.5313,184,290.5313,172,278.5313,184,266.5313" style="stroke:#181818;stroke-width:0.5;"/><text fill="#000000" font-family="sans-serif" font-size="11" lengthAdjust="spacing" textLength="19" x="221" y="301.166">Yes</text><text fill="#000000" font-family="sans-serif" font-size="11" lengthAdjust="spacing" textLength="66" x="184" y="282.6885">&#12494;&#12540;&#12489;&#31292;&#20685;&#20013;</text><text fill="#000000" font-family="sans-serif" font-size="11" lengthAdjust="spacing" textLength="15" x="157" y="276.2109">No</text><ellipse cx="24" cy="325.5313" fill="none" rx="11" ry="11" style="stroke:#222222;stroke-width:1.0;"/><ellipse cx="24" cy="325.5313" fill="#222222" rx="6" ry="6" style="stroke:#222222;stroke-width:1.0;"/><line style="stroke:#181818;stroke-width:1.0;" x1="217" x2="217" y1="30" y2="50"/><polygon fill="#181818" points="213,40,217,50,221,40,217,44" style="stroke:#181818;stroke-width:1.0;"/><line style="stroke:#181818;stroke-width:1.0;" x1="217" x2="217" y1="84.1328" y2="104.1328"/><polygon fill="#181818" points="213,94.1328,217,104.1328,221,94.1328,217,98.1328" style="stroke:#181818;stroke-width:1.0;"/><line style="stroke:#181818;stroke-width:1.0;" x1="217" x2="217" y1="138.2656" y2="158.2656"/><polygon fill="#181818" points="213,148.2656,217,158.2656,221,148.2656,217,152.2656" style="stroke:#181818;stroke-width:1.0;"/><line style="stroke:#181818;stroke-width:1.0;" x1="217" x2="217" y1="192.3984" y2="212.3984"/><polygon fill="#181818" points="213,202.3984,217,212.3984,221,202.3984,217,206.3984" style="stroke:#181818;stroke-width:1.0;"/><line style="stroke:#181818;stroke-width:1.0;" x1="217" x2="217" y1="361.6191" y2="381.6191"/><polygon fill="#181818" points="213,371.6191,217,381.6191,221,371.6191,217,375.6191" style="stroke:#181818;stroke-width:1.0;"/><line style="stroke:#181818;stroke-width:1.0;" x1="217" x2="217" y1="415.752" y2="435.752"/><polygon fill="#181818" points="213,425.752,217,435.752,221,425.752,217,429.752" style="stroke:#181818;stroke-width:1.0;"/><line style="stroke:#181818;stroke-width:1.0;" x1="217" x2="217" y1="469.8848" y2="489.8848"/><polygon fill="#181818" points="213,479.8848,217,489.8848,221,479.8848,217,483.8848" style="stroke:#181818;stroke-width:1.0;"/><line style="stroke:#181818;stroke-width:1.0;" x1="217" x2="217" y1="524.0176" y2="544.0176"/><polygon fill="#181818" points="213,534.0176,217,544.0176,221,534.0176,217,538.0176" style="stroke:#181818;stroke-width:1.0;"/><line style="stroke:#181818;stroke-width:1.0;" x1="217" x2="217" y1="290.5313" y2="327.4863"/><polygon fill="#181818" points="213,317.4863,217,327.4863,221,317.4863,217,321.4863" style="stroke:#181818;stroke-width:1.0;"/><line style="stroke:#181818;stroke-width:1.0;" x1="217" x2="217" y1="578.1504" y2="588.1504"/><line style="stroke:#181818;stroke-width:1.0;" x1="217" x2="401" y1="588.1504" y2="588.1504"/><polygon fill="#181818" points="397,444.3408,401,434.3408,405,444.3408,401,440.3408" style="stroke:#181818;stroke-width:1.0;"/><line style="stroke:#181818;stroke-width:1.0;" x1="401" x2="401" y1="278.5313" y2="588.1504"/><line style="stroke:#181818;stroke-width:1.0;" x1="401" x2="262" y1="278.5313" y2="278.5313"/><polygon fill="#181818" points="272,274.5313,262,278.5313,272,282.5313,268,278.5313" style="stroke:#181818;stroke-width:1.0;"/><line style="stroke:#181818;stroke-width:1.0;" x1="172" x2="24" y1="278.5313" y2="278.5313"/><line style="stroke:#181818;stroke-width:1.0;" x1="24" x2="24" y1="278.5313" y2="314.5313"/><polygon fill="#181818" points="20,304.5313,24,314.5313,28,304.5313,24,308.5313" style="stroke:#181818;stroke-width:1.0;"/><line style="stroke:#181818;stroke-width:1.0;" x1="217" x2="217" y1="246.5313" y2="266.5313"/><polygon fill="#181818" points="213,256.5313,217,266.5313,221,256.5313,217,260.5313" style="stroke:#181818;stroke-width:1.0;"/><!--SRC=[TT3FIm9150Vm-_uLSzmzULzlXTeXH30FdPRHdNQNTdU6dPMyjjCFn4eGhCmw25A2HK69OeB_I-Eu-LyqAWL1NTvXtkVnllDe28DGqLrOzaisPqqUTNZKvQp_EHYAMZEfw1ua7oSDR68FxAHvr5ZSjUAR8t7ykBYioNOHKcIuZhylaKNedyRoAJL8W4Y0IuXInxSuk-1imbdrUuroO3ik0kfF8-vD13kVZPuqu52WxYAgAG3ecMm-pzdfqaHJKR-QJJj0JPIBBguOShtXOnCbzfoAbbpgUFWinlVnu4pMHVzQLdLZUqkJKSNjYvYokFqs6tV5-67UQwcfpLHQuuSZqQtEw-tL_F99ubIsi3Rnw_jla44-2c28ACXXYl8Xz0WoWGSfXPRy3P7176hh8B4-WJJhO0LYoYcGWw4DFFIFbasfaM-kRgDciQOeDCJa2m00]--></g></svg>