<?xml version="1.0" encoding="us-ascii" standalone="no"?><svg xmlns="http://www.w3.org/2000/svg" xmlns:xlink="http://www.w3.org/1999/xlink" contentStyleType="text/css" height="676px" preserveAspectRatio="none" style="width:729px;height:676px;background:#FFFFFF;" version="1.1" viewBox="0 0 729 676" width="729px" zoomAndPan="magnify"><defs/><g><!--cluster gnss_preprocessing package--><g id="cluster_gnss_preprocessing package"><path d="M67.18,22.49 L273.18,22.49 A3.75,3.75 0 0 1 275.68,24.99 L282.68,44.9783 L450.18,44.9783 A2.5,2.5 0 0 1 452.68,47.4783 L452.68,510.07 A2.5,2.5 0 0 1 450.18,512.57 L67.18,512.57 A2.5,2.5 0 0 1 64.68,510.07 L64.68,24.99 A2.5,2.5 0 0 1 67.18,22.49 " fill="none" style="stroke:#000000;stroke-width:1.5;"/><line style="stroke:#000000;stroke-width:1.5;" x1="64.68" x2="282.68" y1="44.9783" y2="44.9783"/><text fill="#000000" font-family="sans-serif" font-size="14" font-weight="bold" lengthAdjust="spacing" textLength="205" x="68.68" y="38.0252">gnss_preprocessing package</text></g><!--cluster tf2_ros package (External)--><g id="cluster_tf2_ros package (External)"><path d="M479.18,6 L667.18,6 A3.75,3.75 0 0 1 669.68,8.5 L676.68,28.4883 L720.18,28.4883 A2.5,2.5 0 0 1 722.68,30.9883 L722.68,160.59 A2.5,2.5 0 0 1 720.18,163.09 L479.18,163.09 A2.5,2.5 0 0 1 476.68,160.59 L476.68,8.5 A2.5,2.5 0 0 1 479.18,6 " fill="none" style="stroke:#000000;stroke-width:1.5;"/><line style="stroke:#000000;stroke-width:1.5;" x1="476.68" x2="676.68" y1="28.4883" y2="28.4883"/><text fill="#000000" font-family="sans-serif" font-size="14" font-weight="bold" lengthAdjust="spacing" textLength="187" x="480.68" y="21.5352">tf2_ros package (External)</text></g><!--cluster ROS2 Topics--><g id="cluster_ROS2 Topics"><path d="M49.18,561.57 L142.18,561.57 A3.75,3.75 0 0 1 144.68,564.07 L151.68,584.0583 L459.18,584.0583 A2.5,2.5 0 0 1 461.68,586.5583 L461.68,666.69 A2.5,2.5 0 0 1 459.18,669.19 L49.18,669.19 A2.5,2.5 0 0 1 46.68,666.69 L46.68,564.07 A2.5,2.5 0 0 1 49.18,561.57 " fill="none" style="stroke:#000000;stroke-width:1.5;"/><line style="stroke:#000000;stroke-width:1.5;" x1="46.68" x2="151.68" y1="584.0583" y2="584.0583"/><text fill="#000000" font-family="sans-serif" font-size="14" font-weight="bold" lengthAdjust="spacing" textLength="92" x="50.68" y="577.1052">ROS2 Topics</text></g><!--class gnss_preprocessing--><g id="elem_gnss_preprocessing"><rect codeLine="4" fill="#F1F1F1" height="73.1094" id="gnss_preprocessing" rx="2.5" ry="2.5" style="stroke:#181818;stroke-width:0.5;" width="169" x="174.18" y="57.49"/><ellipse cx="189.18" cy="77.8005" fill="#FFAAAA" rx="11" ry="11" style="stroke:#181818;stroke-width:1.0;"/><path d="M192.7943,84.3005 L185.0745,84.3005 L185.0745,71.9075 L192.7943,71.9075 L192.7943,74.0657 L187.5233,74.0657 L187.5233,76.7385 L192.2962,76.7385 L192.2962,78.8967 L187.5233,78.8967 L187.5233,82.1423 L192.7943,82.1423 Z " fill="#000000"/><text fill="#000000" font-family="sans-serif" font-size="12" font-style="italic" lengthAdjust="spacing" textLength="78" x="232.68" y="74.0916">&#171;ROS2 Node&#187;</text><text fill="#000000" font-family="sans-serif" font-size="14" lengthAdjust="spacing" textLength="137" x="203.18" y="90.158">gnss_preprocessing</text><line style="stroke:#181818;stroke-width:0.5;" x1="175.18" x2="342.18" y1="98.1111" y2="98.1111"/><line style="stroke:#181818;stroke-width:0.5;" x1="175.18" x2="342.18" y1="106.1111" y2="106.1111"/><ellipse cx="185.18" cy="119.8552" fill="#84BE84" rx="3" ry="3" style="stroke:#038048;stroke-width:1.0;"/><text fill="#000000" font-family="sans-serif" font-size="14" lengthAdjust="spacing" textLength="44" x="194.18" y="123.6463">main()</text></g><!--class GnssPreprocessingCore--><g id="elem_GnssPreprocessingCore"><rect codeLine="8" fill="#F1F1F1" height="270.4805" id="GnssPreprocessingCore" rx="2.5" ry="2.5" style="stroke:#181818;stroke-width:0.5;" width="355" x="81.18" y="226.09"/><ellipse cx="172.93" cy="246.4005" fill="#AAFFAA" rx="11" ry="11" style="stroke:#181818;stroke-width:1.0;"/><path d="M175.4031,252.5436 Q174.8221,252.8424 174.1829,252.9919 Q173.5438,253.1413 172.8382,253.1413 Q170.3314,253.1413 169.0115,251.4894 Q167.6917,249.8376 167.6917,246.7165 Q167.6917,243.5871 169.0115,241.9352 Q170.3314,240.2834 172.8382,240.2834 Q173.5438,240.2834 174.1912,240.4328 Q174.8387,240.5822 175.4031,240.881 L175.4031,243.6037 Q174.7723,243.0226 174.1788,242.7528 Q173.5853,242.4831 172.9544,242.4831 Q171.6097,242.4831 170.9249,243.5497 Q170.2401,244.6164 170.2401,246.7165 Q170.2401,248.8083 170.9249,249.8749 Q171.6097,250.9416 172.9544,250.9416 Q173.5853,250.9416 174.1788,250.6718 Q174.7723,250.402 175.4031,249.821 Z " fill="#000000"/><text fill="#000000" font-family="sans-serif" font-size="12" font-style="italic" lengthAdjust="spacing" textLength="77" x="236.43" y="242.6916">&#171;ROS2 Class&#187;</text><text fill="#000000" font-family="sans-serif" font-size="14" lengthAdjust="spacing" textLength="163" x="193.43" y="258.758">GnssPreprocessingCore</text><line style="stroke:#181818;stroke-width:0.5;" x1="82.18" x2="435.18" y1="266.7111" y2="266.7111"/><rect fill="none" height="6" style="stroke:#C82930;stroke-width:1.0;" width="6" x="89.18" y="277.4552"/><text fill="#000000" font-family="sans-serif" font-size="14" lengthAdjust="spacing" textLength="104" x="101.18" y="284.2463">lat0, lon0, hig0</text><rect fill="none" height="6" style="stroke:#C82930;stroke-width:1.0;" width="6" x="89.18" y="293.9435"/><text fill="#000000" font-family="sans-serif" font-size="14" lengthAdjust="spacing" textLength="106" x="101.18" y="300.7345">pi, a, ONE_F, E2</text><line style="stroke:#181818;stroke-width:1.0;" x1="82.18" x2="435.18" y1="307.6877" y2="307.6877"/><rect fill="none" height="6" style="stroke:#C82930;stroke-width:1.0;" width="6" x="89.18" y="318.4318"/><text fill="#000000" font-family="sans-serif" font-size="14" lengthAdjust="spacing" textLength="182" x="101.18" y="325.2228">gnss_pose_pub : Publisher</text><rect fill="none" height="6" style="stroke:#C82930;stroke-width:1.0;" width="6" x="89.18" y="334.9201"/><text fill="#000000" font-family="sans-serif" font-size="14" lengthAdjust="spacing" textLength="180" x="101.18" y="341.7111">gnss_path_pub : Publisher</text><rect fill="none" height="6" style="stroke:#C82930;stroke-width:1.0;" width="6" x="89.18" y="351.4084"/><text fill="#000000" font-family="sans-serif" font-size="14" lengthAdjust="spacing" textLength="149" x="101.18" y="358.1994">gnss_sub : Subscriber</text><rect fill="none" height="6" style="stroke:#C82930;stroke-width:1.0;" width="6" x="89.18" y="367.8966"/><text fill="#000000" font-family="sans-serif" font-size="14" lengthAdjust="spacing" textLength="329" x="101.18" y="374.6877">odom_to_baselink_broadcaster : TF broadcaster</text><line style="stroke:#181818;stroke-width:1.0;" x1="82.18" x2="435.18" y1="381.6408" y2="381.6408"/><ellipse cx="92.18" cy="395.3849" fill="#84BE84" rx="3" ry="3" style="stroke:#038048;stroke-width:1.0;"/><text fill="#000000" font-family="sans-serif" font-size="14" lengthAdjust="spacing" textLength="250" x="101.18" y="399.1759">GnssPreprocessingCore(lat, lon, hig)</text><ellipse cx="92.18" cy="411.8732" fill="#84BE84" rx="3" ry="3" style="stroke:#038048;stroke-width:1.0;"/><text fill="#000000" font-family="sans-serif" font-size="14" lengthAdjust="spacing" textLength="182" x="101.18" y="415.6642">~GnssPreprocessingCore()</text><line style="stroke:#181818;stroke-width:1.0;" x1="82.18" x2="435.18" y1="422.6173" y2="422.6173"/><rect fill="#F24D5C" height="6" style="stroke:#C82930;stroke-width:1.0;" width="6" x="89.18" y="433.3615"/><text fill="#000000" font-family="sans-serif" font-size="14" lengthAdjust="spacing" textLength="100" x="101.18" y="440.1525">gnssCallback()</text><rect fill="#F24D5C" height="6" style="stroke:#C82930;stroke-width:1.0;" width="6" x="89.18" y="449.8498"/><text fill="#000000" font-family="sans-serif" font-size="14" lengthAdjust="spacing" textLength="69" x="101.18" y="456.6408">blh2ecef()</text><rect fill="#F24D5C" height="6" style="stroke:#C82930;stroke-width:1.0;" width="6" x="89.18" y="466.338"/><text fill="#000000" font-family="sans-serif" font-size="14" lengthAdjust="spacing" textLength="73" x="101.18" y="473.1291">ecef2enu()</text><rect fill="#F24D5C" height="6" style="stroke:#C82930;stroke-width:1.0;" width="6" x="89.18" y="482.8263"/><text fill="#000000" font-family="sans-serif" font-size="14" lengthAdjust="spacing" textLength="144" x="101.18" y="489.6173">deg2rad(), rad2deg()</text></g><!--class static_transform_publisher--><g id="elem_static_transform_publisher"><rect codeLine="39" fill="#F1F1F1" height="106.0859" id="static_transform_publisher" rx="2.5" ry="2.5" style="stroke:#181818;stroke-width:0.5;" width="215" x="492.18" y="41"/><ellipse cx="507.18" cy="61.3105" fill="#FFDDDD" rx="11" ry="11" style="stroke:#181818;stroke-width:1.0;"/><path d="M510.7943,67.8105 L503.0745,67.8105 L503.0745,55.4175 L510.7943,55.4175 L510.7943,57.5757 L505.5233,57.5757 L505.5233,60.2485 L510.2962,60.2485 L510.2962,62.4067 L505.5233,62.4067 L505.5233,65.6523 L510.7943,65.6523 Z " fill="#000000"/><text fill="#000000" font-family="sans-serif" font-size="12" font-style="italic" lengthAdjust="spacing" textLength="78" x="573.68" y="57.6016">&#171;ROS2 Node&#187;</text><text fill="#000000" font-family="sans-serif" font-size="14" lengthAdjust="spacing" textLength="183" x="521.18" y="73.668">static_transform_publisher</text><line style="stroke:#181818;stroke-width:0.5;" x1="493.18" x2="706.18" y1="81.6211" y2="81.6211"/><ellipse cx="503.18" cy="95.3652" fill="none" rx="3" ry="3" style="stroke:#038048;stroke-width:1.0;"/><text fill="#000000" font-family="sans-serif" font-size="14" lengthAdjust="spacing" textLength="189" x="512.18" y="99.1563">static transform publication</text><text fill="#000000" font-family="sans-serif" font-size="14" lengthAdjust="spacing" textLength="105" x="512.18" y="115.6445">map&#8594;odom TF</text><text fill="#000000" font-family="sans-serif" font-size="14" lengthAdjust="spacing" textLength="124" x="512.18" y="132.1328">base_link&#8594;gps TF</text><line style="stroke:#181818;stroke-width:0.5;" x1="493.18" x2="706.18" y1="139.0859" y2="139.0859"/></g><!--class NavSatFix--><g id="elem_NavSatFix"><rect codeLine="45" fill="#F1F1F1" height="56.6211" id="NavSatFix" rx="2.5" ry="2.5" style="stroke:#181818;stroke-width:0.5;" width="99" x="63.18" y="596.57"/><ellipse cx="78.18" cy="616.8805" fill="#FFFFFF" rx="11" ry="11" style="stroke:#181818;stroke-width:1.0;"/><path d="M73.8939,610.9875 L76.8157,610.9875 L78.2933,616.4245 L79.7625,610.9875 L82.701,610.9875 L82.701,623.3805 L80.5926,623.3805 L80.5926,613.4528 L79.2811,618.8732 L77.3304,618.8732 L76.0023,613.4528 L76.0023,623.3805 L73.8939,623.3805 Z " fill="#000000"/><text fill="#000000" font-family="sans-serif" font-size="12" font-style="italic" lengthAdjust="spacing" textLength="62" x="94.68" y="613.1716">&#171;Message&#187;</text><text fill="#000000" font-family="sans-serif" font-size="14" lengthAdjust="spacing" textLength="67" x="92.18" y="629.238">NavSatFix</text><line style="stroke:#181818;stroke-width:0.5;" x1="64.18" x2="161.18" y1="637.1911" y2="637.1911"/><line style="stroke:#181818;stroke-width:0.5;" x1="64.18" x2="161.18" y1="645.1911" y2="645.1911"/></g><!--class PoseStamped--><g id="elem_PoseStamped"><rect codeLine="46" fill="#F1F1F1" height="56.6211" id="PoseStamped" rx="2.5" ry="2.5" style="stroke:#181818;stroke-width:0.5;" width="124" x="196.68" y="596.57"/><ellipse cx="211.68" cy="616.8805" fill="#FFFFFF" rx="11" ry="11" style="stroke:#181818;stroke-width:1.0;"/><path d="M207.3939,610.9875 L210.3157,610.9875 L211.7933,616.4245 L213.2625,610.9875 L216.201,610.9875 L216.201,623.3805 L214.0926,623.3805 L214.0926,613.4528 L212.7811,618.8732 L210.8304,618.8732 L209.5023,613.4528 L209.5023,623.3805 L207.3939,623.3805 Z " fill="#000000"/><text fill="#000000" font-family="sans-serif" font-size="12" font-style="italic" lengthAdjust="spacing" textLength="62" x="240.68" y="613.1716">&#171;Message&#187;</text><text fill="#000000" font-family="sans-serif" font-size="14" lengthAdjust="spacing" textLength="92" x="225.68" y="629.238">PoseStamped</text><line style="stroke:#181818;stroke-width:0.5;" x1="197.68" x2="319.68" y1="637.1911" y2="637.1911"/><line style="stroke:#181818;stroke-width:0.5;" x1="197.68" x2="319.68" y1="645.1911" y2="645.1911"/></g><!--class Path--><g id="elem_Path"><rect codeLine="47" fill="#F1F1F1" height="56.6211" id="Path" rx="2.5" ry="2.5" style="stroke:#181818;stroke-width:0.5;" width="90" x="355.68" y="596.57"/><ellipse cx="370.68" cy="616.8805" fill="#FFFFFF" rx="11" ry="11" style="stroke:#181818;stroke-width:1.0;"/><path d="M366.3939,610.9875 L369.3157,610.9875 L370.7933,616.4245 L372.2625,610.9875 L375.201,610.9875 L375.201,623.3805 L373.0926,623.3805 L373.0926,613.4528 L371.7811,618.8732 L369.8304,618.8732 L368.5023,613.4528 L368.5023,623.3805 L366.3939,623.3805 Z " fill="#000000"/><text fill="#000000" font-family="sans-serif" font-size="12" font-style="italic" lengthAdjust="spacing" textLength="62" x="382.68" y="613.1716">&#171;Message&#187;</text><text fill="#000000" font-family="sans-serif" font-size="14" lengthAdjust="spacing" textLength="30" x="398.68" y="629.238">Path</text><line style="stroke:#181818;stroke-width:0.5;" x1="356.68" x2="444.68" y1="637.1911" y2="637.1911"/><line style="stroke:#181818;stroke-width:0.5;" x1="356.68" x2="444.68" y1="645.1911" y2="645.1911"/></g><!--link gnss_preprocessing to GnssPreprocessingCore--><g id="link_gnss_preprocessing_GnssPreprocessingCore"><path codeLine="53" d="M258.68,131.1 C258.68,155.96 258.68,184.71 258.68,219.65 " fill="none" id="gnss_preprocessing-to-GnssPreprocessingCore" style="stroke:#181818;stroke-width:1.0;"/><polygon fill="#181818" points="258.68,225.65,262.68,216.65,258.68,220.65,254.68,216.65,258.68,225.65" style="stroke:#181818;stroke-width:1.0;"/><text fill="#000000" font-family="sans-serif" font-size="13" lengthAdjust="spacing" textLength="90" x="259.68" y="192.6584">creates &amp; runs</text></g><!--link GnssPreprocessingCore to NavSatFix--><g id="link_GnssPreprocessingCore_NavSatFix"><path codeLine="56" d="M80.68,456.3 C56.53,476.82 35.12,500.86 20.68,528.57 C6,556.71 28.7538,579.092 57.5738,596.622 " fill="none" id="GnssPreprocessingCore-to-NavSatFix" style="stroke:#181818;stroke-width:1.0;"/><polygon fill="#181818" points="62.7,599.74,57.0894,591.6455,58.4282,597.1416,52.932,598.4804,62.7,599.74" style="stroke:#181818;stroke-width:1.0;"/><text fill="#000000" font-family="sans-serif" font-size="13" lengthAdjust="spacing" textLength="225" x="21.68" y="542.1384">subscribes ("/ublox_gps_node/fix")</text></g><!--link GnssPreprocessingCore to PoseStamped--><g id="link_GnssPreprocessingCore_PoseStamped"><path codeLine="57" d="M255.38,496.93 C255.3,513.31 255.37,529.82 255.68,545.57 C256,562.44 256.4502,575.3456 257.1002,590.3456 " fill="none" id="GnssPreprocessingCore-to-PoseStamped" style="stroke:#181818;stroke-width:1.0;"/><polygon fill="#181818" points="257.36,596.34,260.9666,587.1753,257.1435,591.3447,252.9741,587.5216,257.36,596.34" style="stroke:#181818;stroke-width:1.0;"/><text fill="#000000" font-family="sans-serif" font-size="13" lengthAdjust="spacing" textLength="157" x="256.68" y="542.1384">publishes ("/gnss_pose")</text></g><!--link GnssPreprocessingCore to Path--><g id="link_GnssPreprocessingCore_Path"><path codeLine="58" d="M402.58,496.98 C408.83,507.15 414.3,517.7 418.68,528.57 C427.49,550.43 423.4208,571.2849 415.9808,590.7649 " fill="none" id="GnssPreprocessingCore-to-Path" style="stroke:#181818;stroke-width:1.0;"/><polygon fill="#181818" points="413.84,596.37,420.7879,589.3895,415.624,591.6991,413.3144,586.5352,413.84,596.37" style="stroke:#181818;stroke-width:1.0;"/><text fill="#000000" font-family="sans-serif" font-size="13" lengthAdjust="spacing" textLength="155" x="423.45" y="542.1384">publishes ("/gnss_path")</text></g><!--SRC=[VLJTQzDG57_FNt7em3OiOQEFPGn6NNtQ1tRluJQvRSFIt91xCogoOHkLrS44GVoOYY_At8D3L4JiNsFiLf_sBtXoqxGPPhqF2JaVlvpx-vrpF6BkaXQ5GilbtF1ywldCf9pRRWkyn5U0-ue2O3g4SyW9Mrc1qhgsKAkjuL7XxbQz39lCeh2wYfc0Pn4wn7PBAdxipw3k8DHs5gdAV2hHgjh2sbgCDq6holWfd0uE4SiQECp5PzjkBK_Cdgq1qM1hSzseQR1UJipwn9kKpZWrlA015TWE6exDszI_vYUYFS_FfQiUDBZfsusfZrciOmXcD0YdZktk6WsV4SiaN50VutTga35aorhCfw64DvGNbFTJ9w47-R7g__Ui4iTfe7of3nfEkqnDsfmQueyoTOEfmQAjia-iage1lihuEHEic2XM9tjKbe0afK9LyTHgMTbBBXEeKE2QRMgfgMp5UHHA9mk45mYZQJiK_Qp9XKz99_LYpnbTJRxkQM3PN1YYZG7M941FtelNYfGtaDQ3F7EQD2dCp99Mt5Vmwbuw7g9PDdp6qvd0Zk-YaYvnr8AyNa8G5qJOfY5yul8cypjn9oKzD9kIstXkc98a7QRf8DDDD39NIf6jI2BiCCysURQ4JR9N9w9cT-KVD-8_naU53UoOE17_DmtUncce2zBng7Lp-2mwbJq_38ihwheETwaZA-Pjs-F8iOxsyVSVewFdKVyq2hz6uM4KdaNXKCbP9hg-UiDYg829SWlAuHRuWSiHDRP7_VCe_1JrVqQzppYnIzXNIZv033rZfm8yxK0EfS8ICiswHilZXekgB3NjRa6T0vHbhWAfp19fkcVc0yHavcQY0pELuj-thovVFzofHU4naXM50oXDQEoT9-CLzOwY_k3ovDl5yGTLcTDy5Lp0tk_7p-8rXSjeVcYymunuYM42yX77AyNi-5mD3__yUZ8wUOU5NBmvIugw6Wv6J_lZ1-55-6Zq_alKEurwBwBUn_7fo_5mS1qWXy7hOcGf_0S0]--></g></svg>